# Blender 4.5.2 LTS
# www.blender.org
o dagger
v 0.022500 0.005625 0.014830
v 0.011250 -0.005625 0.014830
v 0.033749 0.016875 0.037330
v 0.011250 -0.016875 0.037330
v -0.033750 -0.016875 0.026080
v -0.011250 0.005625 0.037330
v -0.022501 -0.005625 0.037330
v -0.011250 -0.005625 0.037330
v -0.022501 0.005625 0.014830
v -0.022501 -0.005625 0.014830
v -0.011250 -0.016875 0.104830
v 0.011250 0.016875 0.104830
v 0.011250 0.005625 0.104830
v 0.056251 -0.005625 0.014830
v 0.056251 -0.016875 0.014830
v 0.056251 0.005625 0.014830
v 0.056251 -0.005625 0.026080
v 0.056251 0.016875 0.026080
v 0.056251 0.005625 0.026080
v 0.022500 0.005625 0.104830
v -0.022501 0.005625 0.104830
v 0.011250 -0.016875 -0.108920
v -0.011250 -0.005625 -0.108920
v -0.056249 -0.016875 0.014830
v -0.056249 -0.005625 0.014830
v -0.011250 0.005625 -0.108920
v 0.022500 0.005625 -0.131420
v -0.011250 -0.005625 -0.131420
v 0.011250 0.005625 -0.131420
v -0.022501 0.005625 -0.131420
v -0.067500 0.005625 0.026080
v -0.011250 0.005625 -0.176420
v 0.033749 -0.016875 0.026080
v 0.033749 -0.016875 0.037330
v 0.022500 -0.005625 0.014830
v 0.011250 -0.016875 0.014830
v 0.011250 0.005625 0.014830
v 0.033749 0.016875 0.026080
v -0.011250 -0.016875 0.037330
v -0.033750 -0.016875 0.037330
v -0.011250 -0.016875 0.014830
v 0.011250 0.016875 0.014830
v -0.011250 0.016875 0.014830
v 0.011250 0.016875 0.037330
v 0.011250 0.005625 0.037330
v 0.022500 0.005625 0.037330
v 0.022500 -0.005625 0.037330
v 0.011250 -0.005625 0.037330
v -0.033750 0.016875 0.037330
v -0.033750 0.016875 0.026080
v -0.011250 0.016875 0.037330
v -0.022501 0.005625 0.037330
v -0.011250 -0.005625 0.014830
v -0.011250 0.005625 0.014830
v 0.011250 -0.016875 0.104830
v 0.011250 -0.005625 0.104830
v -0.011250 -0.005625 0.104830
v -0.011250 0.016875 0.104830
v -0.011250 0.005625 0.104830
v 0.056251 -0.016875 0.026080
v 0.056251 0.016875 0.014830
v 0.022500 -0.005625 0.104830
v -0.022501 -0.005625 0.104830
v 0.067500 -0.005625 0.014830
v 0.067500 0.005625 0.014830
v 0.067500 -0.005625 0.026080
v 0.067500 0.005625 0.026080
v 0.011250 -0.005625 -0.108920
v -0.011250 -0.016875 -0.108920
v -0.056249 -0.016875 0.026080
v -0.056249 0.005625 0.014830
v -0.056249 0.016875 0.014830
v -0.056249 0.016875 0.026080
v -0.056249 -0.005625 0.026080
v -0.056249 0.005625 0.026080
v 0.011250 0.016875 -0.108920
v -0.011250 0.016875 -0.108920
v 0.011250 0.005625 -0.108920
v 0.022500 -0.005625 -0.131420
v 0.011250 -0.005625 -0.131420
v -0.022501 -0.005625 -0.131420
v -0.011250 0.005625 -0.131420
v -0.067500 -0.005625 0.014830
v -0.067500 -0.005625 0.026080
v -0.067500 0.005625 0.014830
v 0.011250 -0.005625 -0.176420
v 0.011250 0.005625 -0.176420
v -0.011250 -0.005625 -0.176420
vn -0.0000 -0.0000 -1.0000
vn 1.0000 -0.0000 -0.0000
vn -0.0000 1.0000 -0.0000
vn -1.0000 -0.0000 -0.0000
vn -0.0000 -1.0000 -0.0000
vn -0.0000 -0.0000 1.0000
vt 0.250000 0.500000
vt 0.750000 0.500000
s 0
f 71/1/1 9/1/1 25/1/1
f 1/2/2 79/2/2 27/2/2
f 29/2/2 86/2/2 87/2/2
f 43/2/3 76/2/3 77/2/3
f 76/2/1 26/2/1 77/2/1
f 21/1/3 6/1/3 52/1/3
f 83/1/4 31/1/4 85/1/4
f 81/2/4 9/2/4 30/2/4
f 22/2/5 41/2/5 69/2/5
f 67/1/2 64/1/2 65/1/2
f 51/1/4 59/1/4 58/1/4
f 78/2/2 42/2/2 37/2/2
f 75/1/6 74/1/6 50/1/6
f 56/1/2 4/1/2 48/1/2
f 5/1/5 15/1/5 33/1/5
f 25/1/5 84/1/5 83/1/5
f 17/1/6 19/1/6 33/1/6
f 7/1/4 21/1/4 52/1/4
f 19/1/3 65/1/3 16/1/3
f 12/1/2 45/1/2 44/1/2
f 7/1/5 57/1/5 63/1/5
f 56/1/6 13/1/6 59/1/6
f 70/1/4 25/1/4 24/1/4
f 16/1/1 14/1/1 35/1/1
f 47/1/6 34/1/6 3/1/6
f 20/1/2 47/1/2 46/1/2
f 34/1/2 38/1/2 3/1/2
f 13/1/3 46/1/3 45/1/3
f 5/1/4 49/1/4 50/1/4
f 32/2/1 86/2/1 88/2/1
f 56/1/5 47/1/5 62/1/5
f 2/2/2 22/2/2 68/2/2
f 64/1/5 17/1/5 14/1/5
f 69/2/1 68/2/1 22/2/1
f 23/2/4 41/2/4 53/2/4
f 40/1/6 52/1/6 49/1/6
f 15/1/2 17/1/2 60/1/2
f 72/1/4 75/1/4 73/1/4
f 77/2/4 54/2/4 43/2/4
f 29/2/1 79/2/1 80/2/1
f 18/1/2 16/1/2 61/1/2
f 80/2/5 79/2/5 68/2/5
f 26/2/3 29/2/3 82/2/3
f 51/1/3 44/1/3 38/1/3
f 8/1/4 11/1/4 57/1/4
f 31/1/3 71/1/3 85/1/3
f 28/2/1 30/2/1 82/2/1
f 88/2/4 82/2/4 32/2/4
f 25/1/1 83/1/1 85/1/1
f 71/1/1 72/1/1 43/1/1
f 25/1/1 85/1/1 71/1/1
f 41/1/1 24/1/1 25/1/1
f 10/1/1 53/1/1 41/1/1
f 43/1/1 54/1/1 9/1/1
f 10/1/1 41/1/1 25/1/1
f 71/1/1 43/1/1 9/1/1
f 9/1/1 10/1/1 25/1/1
f 1/2/2 35/2/2 79/2/2
f 29/2/2 80/2/2 86/2/2
f 43/2/3 42/2/3 76/2/3
f 76/2/1 78/2/1 26/2/1
f 21/1/3 59/1/3 6/1/3
f 83/1/4 84/1/4 31/1/4
f 81/2/4 10/2/4 9/2/4
f 22/2/5 36/2/5 41/2/5
f 67/1/2 66/1/2 64/1/2
f 51/1/4 6/1/4 59/1/4
f 78/2/2 76/2/2 42/2/2
f 75/1/6 31/1/6 84/1/6
f 74/1/6 70/1/6 5/1/6
f 75/1/6 84/1/6 74/1/6
f 50/1/6 73/1/6 75/1/6
f 74/1/6 5/1/6 50/1/6
f 56/1/2 55/1/2 4/1/2
f 4/1/5 55/1/5 11/1/5
f 39/1/5 40/1/5 5/1/5
f 4/1/5 11/1/5 39/1/5
f 33/1/5 34/1/5 4/1/5
f 15/1/5 60/1/5 33/1/5
f 70/1/5 24/1/5 15/1/5
f 4/1/5 39/1/5 5/1/5
f 5/1/5 70/1/5 15/1/5
f 33/1/5 4/1/5 5/1/5
f 25/1/5 74/1/5 84/1/5
f 17/1/6 66/1/6 67/1/6
f 19/1/6 18/1/6 38/1/6
f 17/1/6 67/1/6 19/1/6
f 33/1/6 60/1/6 17/1/6
f 19/1/6 38/1/6 33/1/6
f 7/1/4 63/1/4 21/1/4
f 19/1/3 67/1/3 65/1/3
f 12/1/2 13/1/2 45/1/2
f 7/1/5 8/1/5 57/1/5
f 59/1/6 21/1/6 63/1/6
f 57/1/6 11/1/6 55/1/6
f 59/1/6 63/1/6 57/1/6
f 12/1/6 58/1/6 59/1/6
f 62/1/6 20/1/6 13/1/6
f 13/1/6 12/1/6 59/1/6
f 59/1/6 57/1/6 55/1/6
f 56/1/6 62/1/6 13/1/6
f 59/1/6 55/1/6 56/1/6
f 70/1/4 74/1/4 25/1/4
f 16/1/1 65/1/1 64/1/1
f 14/1/1 15/1/1 36/1/1
f 16/1/1 64/1/1 14/1/1
f 42/1/1 61/1/1 16/1/1
f 1/1/1 37/1/1 42/1/1
f 36/1/1 2/1/1 35/1/1
f 1/1/1 42/1/1 16/1/1
f 14/1/1 36/1/1 35/1/1
f 35/1/1 1/1/1 16/1/1
f 47/1/6 48/1/6 4/1/6
f 3/1/6 44/1/6 45/1/6
f 3/1/6 45/1/6 46/1/6
f 47/1/6 4/1/6 34/1/6
f 3/1/6 46/1/6 47/1/6
f 20/1/2 62/1/2 47/1/2
f 34/1/2 33/1/2 38/1/2
f 13/1/3 20/1/3 46/1/3
f 5/1/4 40/1/4 49/1/4
f 32/2/1 87/2/1 86/2/1
f 56/1/5 48/1/5 47/1/5
f 2/2/2 36/2/2 22/2/2
f 64/1/5 66/1/5 17/1/5
f 69/2/1 23/2/1 68/2/1
f 23/2/4 69/2/4 41/2/4
f 40/1/6 39/1/6 8/1/6
f 40/1/6 8/1/6 7/1/6
f 6/1/6 51/1/6 49/1/6
f 40/1/6 7/1/6 52/1/6
f 52/1/6 6/1/6 49/1/6
f 15/1/2 14/1/2 17/1/2
f 72/1/4 71/1/4 75/1/4
f 77/2/4 26/2/4 54/2/4
f 29/2/1 27/2/1 79/2/1
f 18/1/2 19/1/2 16/1/2
f 53/2/5 10/2/5 81/2/5
f 28/2/5 88/2/5 86/2/5
f 23/2/5 53/2/5 81/2/5
f 35/2/5 2/2/5 68/2/5
f 68/2/5 23/2/5 81/2/5
f 28/2/5 86/2/5 80/2/5
f 68/2/5 81/2/5 28/2/5
f 79/2/5 35/2/5 68/2/5
f 68/2/5 28/2/5 80/2/5
f 78/2/3 37/2/3 1/2/3
f 1/2/3 27/2/3 29/2/3
f 29/2/3 87/2/3 32/2/3
f 82/2/3 30/2/3 9/2/3
f 29/2/3 32/2/3 82/2/3
f 78/2/3 1/2/3 29/2/3
f 9/2/3 54/2/3 26/2/3
f 26/2/3 78/2/3 29/2/3
f 82/2/3 9/2/3 26/2/3
f 61/1/3 72/1/3 73/1/3
f 50/1/3 49/1/3 51/1/3
f 61/1/3 73/1/3 50/1/3
f 38/1/3 18/1/3 61/1/3
f 44/1/3 3/1/3 38/1/3
f 58/1/3 12/1/3 44/1/3
f 61/1/3 50/1/3 51/1/3
f 51/1/3 58/1/3 44/1/3
f 38/1/3 61/1/3 51/1/3
f 8/1/4 39/1/4 11/1/4
f 31/1/3 75/1/3 71/1/3
f 28/2/1 81/2/1 30/2/1
f 88/2/4 28/2/4 82/2/4
