# Blender 4.5.2 LTS
# www.blender.org
o empty_bottle
v -0.150820 -0.034713 -0.100078
v 0.149180 0.015286 -0.200078
v -0.150820 -0.184714 0.099922
v -0.100820 -0.034713 0.099922
v -0.100820 -0.184714 0.149922
v 0.099180 0.115286 0.099922
v -0.100820 0.115286 0.099922
v -0.050820 0.165287 0.099922
v 0.049180 0.165287 0.049922
v 0.049180 -0.034713 0.099922
v 0.149180 -0.234714 -0.150078
v 0.149180 -0.234714 -0.200078
v -0.150820 -0.234714 -0.200078
v 0.199180 -0.234713 0.149922
v 0.149180 -0.234713 0.199922
v 0.149180 -0.184714 -0.100078
v 0.149180 0.015287 0.199922
v 0.049180 0.165287 -0.050078
v 0.099180 -0.034713 -0.050078
v 0.149180 0.115286 -0.150078
v 0.099180 0.115286 -0.100078
v 0.199180 0.015287 0.149922
v 0.149180 0.065286 -0.100078
v 0.149180 0.065286 0.099922
v 0.099180 0.065286 -0.100078
v -0.050820 0.165287 -0.050078
v 0.099180 0.165287 -0.200078
v 0.099180 0.115286 -0.200078
v -0.200820 0.015287 0.149922
v -0.150820 0.065286 0.099922
v -0.200820 0.115286 0.099922
v 0.199180 0.165287 0.099922
v 0.149180 0.165287 0.099922
v -0.100820 0.165287 0.149922
v 0.099180 0.165287 0.199922
v -0.100820 -0.034713 -0.150078
v -0.100820 -0.184714 -0.150078
v -0.100820 -0.184714 -0.100078
v -0.100820 -0.034713 -0.100078
v -0.150820 -0.184714 -0.100078
v 0.149180 0.015286 -0.150078
v -0.150820 0.015286 -0.200078
v -0.150820 0.015286 -0.150078
v -0.150820 -0.034713 0.099922
v -0.100820 -0.184714 0.099922
v -0.100820 -0.034713 0.149922
v 0.099180 0.065286 0.099922
v 0.099180 0.115286 0.149922
v 0.099180 0.065286 0.149922
v -0.100820 0.065286 0.099922
v -0.100820 0.115286 0.149922
v -0.100820 0.065286 0.149922
v -0.050820 0.165287 0.049922
v -0.050820 -0.034713 0.049922
v -0.100820 0.165287 0.049922
v -0.050820 -0.034713 0.099922
v -0.100820 -0.034713 0.049922
v 0.099180 0.165287 0.049922
v 0.099180 -0.034713 0.049922
v 0.049180 -0.034713 0.049922
v 0.049180 0.165287 0.099922
v 0.099180 -0.034713 0.099922
v 0.149180 -0.234713 0.149922
v 0.149180 -0.284713 -0.150078
v 0.149180 -0.284713 0.149922
v -0.150820 -0.284713 -0.150078
v -0.150820 -0.234714 -0.150078
v -0.150820 -0.234713 0.149922
v -0.150820 -0.284713 0.149922
v 0.199180 -0.234714 -0.150078
v -0.200820 -0.234714 -0.150078
v -0.200820 -0.234713 0.149922
v -0.150820 -0.234713 0.199922
v 0.099180 -0.034713 -0.150078
v 0.099180 -0.184714 -0.150078
v 0.149180 -0.184714 0.099922
v 0.099180 -0.184714 -0.100078
v 0.099180 -0.184714 0.099922
v 0.099180 -0.184714 0.149922
v 0.149180 0.015287 0.149922
v -0.150820 0.015287 0.149922
v -0.150820 0.015287 0.199922
v 0.099180 0.165287 -0.050078
v 0.049180 0.165287 -0.100078
v 0.099180 -0.034713 -0.100078
v 0.049180 -0.034713 -0.050078
v 0.049180 -0.034713 -0.100078
v 0.149180 0.165287 -0.150078
v 0.149180 0.165287 -0.100078
v 0.099180 0.165287 -0.150078
v 0.149180 0.115286 -0.100078
v 0.099180 0.115286 -0.150078
v 0.199180 0.015286 -0.150078
v 0.149180 0.115286 0.099922
v 0.149180 0.065286 0.149922
v -0.050820 0.165287 -0.100078
v -0.050820 -0.034713 -0.100078
v -0.050820 -0.034713 -0.050078
v -0.100820 0.165287 -0.050078
v -0.100820 -0.034713 -0.050078
v -0.100820 0.165287 -0.200078
v -0.100820 0.115286 -0.200078
v -0.100820 0.165287 -0.150078
v -0.100820 0.115286 -0.150078
v 0.099180 0.065286 -0.150078
v -0.100820 0.065286 -0.150078
v -0.100820 0.065286 -0.100078
v -0.100820 0.115286 -0.100078
v -0.150820 0.165287 -0.150078
v -0.150820 0.115286 -0.150078
v -0.150820 0.165287 -0.100078
v -0.150820 0.115286 -0.100078
v 0.149180 0.065286 -0.150078
v 0.099180 -0.034713 0.149922
v 0.149180 -0.034713 -0.100078
v 0.149180 -0.034713 0.099922
v -0.150820 0.065286 -0.150078
v -0.150820 0.065286 -0.100078
v -0.200820 0.015286 -0.150078
v -0.150820 0.065286 0.149922
v -0.150820 0.165287 0.099922
v -0.200820 0.165287 -0.100078
v -0.200820 0.115286 -0.100078
v -0.200820 0.165287 0.099922
v -0.150820 0.115286 0.099922
v 0.199180 0.165287 -0.100078
v 0.199180 0.115286 -0.100078
v 0.199180 0.115286 0.099922
v 0.149180 0.165287 0.149922
v 0.149180 0.115286 0.149922
v 0.099180 0.165287 0.149922
v -0.150820 0.165287 0.149922
v -0.150820 0.115286 0.149922
v 0.099180 0.115286 0.199922
v -0.100820 0.165287 0.199922
v -0.100820 0.115286 0.199922
vn -1.0000 -0.0000 -0.0000
vn 1.0000 -0.0000 -0.0000
vn -0.0000 -0.0000 1.0000
vn -0.0000 -0.0000 -1.0000
vn -0.0000 -1.0000 -0.0000
vn -0.0000 1.0000 -0.0000
s 0
f 59//1 83//1 19//1
f 36//2 38//2 37//2
f 38//3 1//3 40//3
f 128//2 126//2 32//2
f 27//4 102//4 101//4
f 73//3 17//3 82//3
f 79//1 62//1 78//1
f 1//2 3//2 40//2
f 4//2 5//2 45//2
f 6//2 49//2 47//2
f 92//5 91//5 21//5
f 92//2 27//2 90//2
f 121//1 133//1 132//1
f 49//6 24//6 47//6
f 56//2 53//2 8//2
f 88//4 92//4 90//4
f 101//1 104//1 103//1
f 64//4 67//4 11//4
f 69//3 63//3 68//3
f 46//4 79//4 5//4
f 105//4 41//4 106//4
f 118//6 106//6 117//6
f 14//3 80//3 63//3
f 39//5 97//5 100//5
f 130//2 33//2 129//2
f 67//4 119//4 43//4
f 115//5 59//5 19//5
f 94//3 32//3 33//3
f 65//2 11//2 63//2
f 15//2 80//2 17//2
f 81//1 73//1 82//1
f 2//4 13//4 42//4
f 8//4 10//4 56//4
f 36//3 75//3 74//3
f 109//1 112//1 111//1
f 82//6 80//6 81//6
f 41//6 42//6 43//6
f 84//1 86//1 18//1
f 38//6 78//6 77//6
f 9//1 10//1 61//1
f 99//2 57//2 100//2
f 80//6 93//6 41//6
f 24//3 6//3 47//3
f 52//3 80//3 49//3
f 23//2 24//2 80//2
f 64//5 69//5 66//5
f 96//2 98//2 97//2
f 7//1 52//1 51//1
f 91//4 25//4 21//4
f 53//4 57//4 55//4
f 58//4 60//4 9//4
f 104//5 28//5 92//5
f 21//2 105//2 92//2
f 126//4 91//4 89//4
f 120//6 50//6 30//6
f 106//1 108//1 104//1
f 104//5 112//5 110//5
f 72//3 81//3 29//3
f 86//3 83//3 18//3
f 25//6 113//6 105//6
f 100//3 26//3 99//3
f 4//4 3//4 44//4
f 12//2 41//2 11//2
f 116//1 16//1 76//1
f 78//4 116//4 76//4
f 73//5 63//5 15//5
f 75//1 85//1 74//1
f 16//3 85//3 77//3
f 41//4 70//4 11//4
f 103//4 110//4 109//4
f 119//6 81//6 43//6
f 97//3 84//3 96//3
f 118//1 43//1 30//1
f 112//5 31//5 123//5
f 70//2 22//2 14//2
f 130//5 6//5 94//5
f 48//3 129//3 131//3
f 111//4 123//4 122//4
f 133//3 34//3 132//3
f 66//1 68//1 67//1
f 122//1 31//1 124//1
f 12//5 67//5 13//5
f 91//5 128//5 94//5
f 42//1 67//1 43//1
f 70//5 63//5 11//5
f 91//2 88//2 89//2
f 72//1 119//1 71//1
f 51//5 134//5 136//5
f 31//3 121//3 124//3
f 108//4 118//4 112//4
f 71//5 68//5 72//5
f 51//5 125//5 7//5
f 7//3 30//3 50//3
f 134//2 131//2 35//2
f 136//3 35//3 135//3
f 34//1 136//1 135//1
f 101//6 84//6 27//6
f 89//6 88//6 90//6
f 84//6 90//6 27//6
f 103//6 109//6 111//6
f 33//6 32//6 58//6
f 89//6 83//6 126//6
f 35//6 131//6 61//6
f 83//6 89//6 84//6
f 96//6 103//6 111//6
f 83//6 84//6 18//6
f 84//6 101//6 96//6
f 111//6 99//6 96//6
f 122//6 99//6 111//6
f 99//6 26//6 96//6
f 99//6 122//6 124//6
f 32//6 83//6 58//6
f 55//6 99//6 124//6
f 131//6 129//6 33//6
f 33//6 58//6 61//6
f 8//6 53//6 55//6
f 124//6 121//6 55//6
f 84//6 89//6 90//6
f 61//6 131//6 33//6
f 8//6 35//6 61//6
f 83//6 32//6 126//6
f 58//6 9//6 61//6
f 121//6 8//6 55//6
f 121//6 132//6 34//6
f 101//6 103//6 96//6
f 8//6 34//6 135//6
f 35//6 8//6 135//6
f 8//6 121//6 34//6
f 59//1 58//1 83//1
f 36//2 39//2 38//2
f 38//3 39//3 1//3
f 128//2 127//2 126//2
f 27//4 28//4 102//4
f 73//3 15//3 17//3
f 79//1 114//1 62//1
f 1//2 44//2 3//2
f 4//2 46//2 5//2
f 6//2 48//2 49//2
f 92//5 20//5 91//5
f 92//2 28//2 27//2
f 121//1 125//1 133//1
f 49//6 95//6 24//6
f 56//2 54//2 53//2
f 88//4 20//4 92//4
f 101//1 102//1 104//1
f 64//4 66//4 67//4
f 69//3 65//3 63//3
f 46//4 114//4 79//4
f 104//4 92//4 105//4
f 105//4 113//4 41//4
f 41//4 43//4 106//4
f 43//4 117//4 106//4
f 106//4 104//4 105//4
f 118//6 107//6 106//6
f 14//3 22//3 80//3
f 57//5 54//5 56//5
f 10//5 60//5 59//5
f 10//5 59//5 62//5
f 62//5 114//5 10//5
f 114//5 46//5 10//5
f 4//5 44//5 57//5
f 44//5 1//5 57//5
f 56//5 10//5 46//5
f 56//5 46//5 4//5
f 57//5 56//5 4//5
f 39//5 36//5 97//5
f 36//5 74//5 97//5
f 74//5 85//5 87//5
f 85//5 86//5 87//5
f 74//5 87//5 97//5
f 97//5 98//5 100//5
f 100//5 57//5 1//5
f 100//5 1//5 39//5
f 130//2 94//2 33//2
f 67//4 71//4 119//4
f 86//5 85//5 19//5
f 85//5 115//5 19//5
f 115//5 116//5 59//5
f 116//5 62//5 59//5
f 94//3 128//3 32//3
f 65//2 64//2 11//2
f 15//2 63//2 80//2
f 81//1 68//1 73//1
f 2//4 12//4 13//4
f 8//4 61//4 10//4
f 36//3 37//3 75//3
f 109//1 110//1 112//1
f 82//6 17//6 80//6
f 41//6 2//6 42//6
f 84//1 87//1 86//1
f 38//6 40//6 3//6
f 45//6 5//6 79//6
f 38//6 3//6 45//6
f 75//6 37//6 38//6
f 76//6 16//6 77//6
f 77//6 75//6 38//6
f 38//6 45//6 78//6
f 45//6 79//6 78//6
f 78//6 76//6 77//6
f 9//1 60//1 10//1
f 99//2 55//2 57//2
f 80//6 22//6 93//6
f 24//3 94//3 6//3
f 49//3 48//3 51//3
f 52//3 120//3 81//3
f 49//3 51//3 52//3
f 80//3 95//3 49//3
f 52//3 81//3 80//3
f 80//2 41//2 23//2
f 41//2 113//2 23//2
f 23//2 91//2 94//2
f 24//2 95//2 80//2
f 23//2 94//2 24//2
f 64//5 65//5 69//5
f 96//2 26//2 98//2
f 7//1 50//1 52//1
f 91//4 23//4 25//4
f 53//4 54//4 57//4
f 58//4 59//4 60//4
f 104//5 102//5 28//5
f 21//2 25//2 105//2
f 126//4 127//4 91//4
f 120//6 52//6 50//6
f 106//1 107//1 108//1
f 104//5 108//5 112//5
f 72//3 68//3 81//3
f 86//3 19//3 83//3
f 25//6 23//6 113//6
f 100//3 98//3 26//3
f 4//4 45//4 3//4
f 12//2 2//2 41//2
f 116//1 115//1 16//1
f 78//4 62//4 116//4
f 73//5 68//5 63//5
f 75//1 77//1 85//1
f 16//3 115//3 85//3
f 41//4 93//4 70//4
f 103//4 104//4 110//4
f 119//6 29//6 81//6
f 97//3 87//3 84//3
f 125//1 112//1 118//1
f 118//1 117//1 43//1
f 43//1 81//1 30//1
f 81//1 120//1 30//1
f 30//1 125//1 118//1
f 112//5 125//5 31//5
f 70//2 93//2 22//2
f 130//5 48//5 6//5
f 48//3 130//3 129//3
f 111//4 112//4 123//4
f 133//3 51//3 34//3
f 66//1 69//1 68//1
f 122//1 123//1 31//1
f 12//5 11//5 67//5
f 91//5 127//5 128//5
f 42//1 13//1 67//1
f 70//5 14//5 63//5
f 91//2 20//2 88//2
f 72//1 29//1 119//1
f 51//5 48//5 134//5
f 31//3 125//3 121//3
f 108//4 107//4 118//4
f 71//5 67//5 68//5
f 51//5 133//5 125//5
f 7//3 125//3 30//3
f 134//2 48//2 131//2
f 136//3 134//3 35//3
f 34//1 51//1 136//1
