# Blender 4.5.2 LTS
# www.blender.org
o empty_bottle
v -0.150820 -0.034713 -0.100078
v 0.149180 0.015286 -0.200078
v -0.150820 -0.184714 0.099922
v -0.100820 -0.034713 0.099922
v -0.100820 -0.184714 0.149922
v 0.099180 0.115286 0.099922
v -0.100820 0.115286 0.099922
v -0.050820 0.165287 0.099922
v 0.049180 0.165287 0.049922
v 0.049180 -0.034713 0.099922
v 0.149180 -0.234714 -0.150078
v 0.149180 -0.234714 -0.200078
v -0.150820 -0.234714 -0.200078
v 0.199180 -0.234713 0.149922
v 0.149180 -0.234713 0.199922
v 0.149180 -0.184714 -0.100078
v 0.149180 0.015287 0.199922
v 0.049180 0.165287 -0.050078
v 0.099180 -0.034713 -0.050078
v 0.149180 0.115286 -0.150078
v 0.099180 0.115286 -0.100078
v 0.199180 0.015287 0.149922
v 0.149180 0.065286 -0.100078
v 0.149180 0.065286 0.099922
v 0.099180 0.065286 -0.100078
v -0.050820 0.165287 -0.050078
v 0.099180 0.165287 -0.200078
v 0.099180 0.115286 -0.200078
v -0.200820 0.015287 0.149922
v -0.150820 0.065286 0.099922
v -0.200820 0.115286 0.099922
v 0.199180 0.165287 0.099922
v 0.149180 0.165287 0.099922
v -0.100820 0.165287 0.149922
v 0.099180 0.165287 0.199922
v -0.100820 -0.034713 -0.150078
v -0.100820 -0.184714 -0.150078
v -0.100820 -0.184714 -0.100078
v -0.100820 -0.034713 -0.100078
v -0.150820 -0.184714 -0.100078
v 0.149180 0.015286 -0.150078
v -0.150820 0.015286 -0.200078
v -0.150820 0.015286 -0.150078
v -0.150820 -0.034713 0.099922
v -0.100820 -0.184714 0.099922
v -0.100820 -0.034713 0.149922
v 0.099180 0.065286 0.099922
v 0.099180 0.115286 0.149922
v 0.099180 0.065286 0.149922
v -0.100820 0.065286 0.099922
v -0.100820 0.115286 0.149922
v -0.100820 0.065286 0.149922
v -0.050820 0.165287 0.049922
v -0.050820 -0.034713 0.049922
v -0.100820 0.165287 0.049922
v -0.050820 -0.034713 0.099922
v -0.100820 -0.034713 0.049922
v 0.099180 0.165287 0.049922
v 0.099180 -0.034713 0.049922
v 0.049180 -0.034713 0.049922
v 0.049180 0.165287 0.099922
v 0.099180 -0.034713 0.099922
v 0.149180 -0.234713 0.149922
v 0.149180 -0.284713 -0.150078
v 0.149180 -0.284713 0.149922
v -0.150820 -0.284713 -0.150078
v -0.150820 -0.234714 -0.150078
v -0.150820 -0.234713 0.149922
v -0.150820 -0.284713 0.149922
v 0.199180 -0.234714 -0.150078
v -0.200820 -0.234714 -0.150078
v -0.200820 -0.234713 0.149922
v -0.150820 -0.234713 0.199922
v 0.099180 -0.034713 -0.150078
v 0.099180 -0.184714 -0.150078
v 0.149180 -0.184714 0.099922
v 0.099180 -0.184714 -0.100078
v 0.099180 -0.184714 0.099922
v 0.099180 -0.184714 0.149922
v 0.149180 0.015287 0.149922
v -0.150820 0.015287 0.149922
v -0.150820 0.015287 0.199922
v 0.099180 0.165287 -0.050078
v 0.049180 0.165287 -0.100078
v 0.099180 -0.034713 -0.100078
v 0.049180 -0.034713 -0.050078
v 0.049180 -0.034713 -0.100078
v 0.149180 0.165287 -0.150078
v 0.149180 0.165287 -0.100078
v 0.099180 0.165287 -0.150078
v 0.149180 0.115286 -0.100078
v 0.099180 0.115286 -0.150078
v 0.199180 0.015286 -0.150078
v 0.149180 0.115286 0.099922
v 0.149180 0.065286 0.149922
v -0.050820 0.165287 -0.100078
v -0.050820 -0.034713 -0.100078
v -0.050820 -0.034713 -0.050078
v -0.100820 0.165287 -0.050078
v -0.100820 -0.034713 -0.050078
v -0.100820 0.165287 -0.200078
v -0.100820 0.115286 -0.200078
v -0.100820 0.165287 -0.150078
v -0.100820 0.115286 -0.150078
v 0.099180 0.065286 -0.150078
v -0.100820 0.065286 -0.150078
v -0.100820 0.065286 -0.100078
v -0.100820 0.115286 -0.100078
v -0.150820 0.165287 -0.150078
v -0.150820 0.115286 -0.150078
v -0.150820 0.165287 -0.100078
v -0.150820 0.115286 -0.100078
v 0.149180 0.065286 -0.150078
v 0.099180 -0.034713 0.149922
v 0.149180 -0.034713 -0.100078
v 0.149180 -0.034713 0.099922
v -0.150820 0.065286 -0.150078
v -0.150820 0.065286 -0.100078
v -0.200820 0.015286 -0.150078
v -0.150820 0.065286 0.149922
v -0.150820 0.165287 0.099922
v -0.200820 0.165287 -0.100078
v -0.200820 0.115286 -0.100078
v -0.200820 0.165287 0.099922
v -0.150820 0.115286 0.099922
v 0.199180 0.165287 -0.100078
v 0.199180 0.115286 -0.100078
v 0.199180 0.115286 0.099922
v 0.149180 0.165287 0.149922
v 0.149180 0.115286 0.149922
v 0.099180 0.165287 0.149922
v -0.150820 0.165287 0.149922
v -0.150820 0.115286 0.149922
v 0.099180 0.115286 0.199922
v -0.100820 0.165287 0.199922
v -0.100820 0.115286 0.199922
vn -1.0000 -0.0000 -0.0000
vn 1.0000 -0.0000 -0.0000
vn -0.0000 -0.0000 1.0000
vn -0.0000 -0.0000 -1.0000
vn -0.0000 -1.0000 -0.0000
vn -0.0000 1.0000 -0.0000
vt 24.049999 -48.974998
vt 23.950001 -48.775002
vt 23.950001 -48.974998
vt 24.150000 -48.974998
vt 24.100000 -49.125000
vt 24.150000 -49.125000
vt 23.900000 -49.125000
vt 23.850000 -48.974998
vt 23.850000 -49.125000
vt 23.900000 -48.825001
vt 24.100000 -48.775002
vt 23.900000 -48.775002
vt 24.100000 -48.825001
vt 23.850000 -49.174999
vt 24.150000 -48.924999
vt 23.850000 -48.924999
vt 24.100000 -48.974998
vt 23.900000 -48.974998
vt 23.850000 -48.875000
vt 23.900000 -48.875000
vt 24.100000 -49.150002
vt 24.150000 -49.099998
vt 24.100000 -49.099998
vt 24.150000 -48.825001
vt 24.200001 -48.775002
vt 24.150000 -48.775002
vt 23.900000 -48.849998
vt 23.850000 -48.900002
vt 23.900000 -48.900002
vt 23.850000 -48.775002
vt 23.799999 -48.775002
vt 23.850000 -48.825001
vt 23.850000 -49.224998
vt 24.150000 -49.174999
vt 24.100000 -48.875000
vt 24.150000 -49.150002
vt 24.200001 -49.174999
vt 23.900000 -49.099998
vt 23.950001 -49.099998
vt 23.900000 -49.049999
vt 24.200001 -48.924999
vt 24.100000 -48.950001
vt 24.100000 -49.049999
vt 23.799999 -49.174999
vt 23.799999 -48.924999
vt 24.049999 -48.775002
vt 24.150000 -48.799999
vt 23.850000 -48.849998
vt 24.150000 -48.849998
vt 23.850000 -49.150002
vt 24.150000 -49.200001
vt 23.799999 -49.150002
vt 24.150000 -48.875000
vt 23.900000 -49.150002
vt 24.100000 -49.200001
vt 24.100000 -48.900002
vt 24.150000 -48.900002
vt 23.850000 -49.099998
vt 23.850000 -48.799999
vt 24.200001 -49.150002
vt 23.799999 -48.900002
vt 23.799999 -49.099998
vt 24.200001 -48.825001
vt 23.850000 -49.200001
vt 24.200001 -48.900002
vt 24.100000 -48.799999
vt 23.900000 -48.799999
vt 23.799999 -48.825001
vt 23.799999 -48.849998
vt 0.000000 0.000000
vt 24.150000 -49.224998
vt 23.900000 -48.950001
vt 23.950001 -48.950001
vt 23.950001 -48.900002
vt 24.049999 -48.900002
vt 24.049999 -48.950001
vt 24.100000 -48.849998
vt 24.049999 -49.099998
vt 24.049999 -49.049999
vt 23.950001 -49.049999
vt 23.900000 -49.200001
vt 24.200001 -48.849998
vt 24.200001 -49.099998
s 0
f 59/1/1 83/2/1 19/3/1
f 36/4/2 38/5/2 37/6/2
f 38/7/3 1/8/3 40/9/3
f 128/10/2 126/11/2 32/12/2
f 27/12/4 102/13/4 101/11/4
f 73/14/3 17/15/3 82/16/3
f 79/6/1 62/17/1 78/5/1
f 1/17/2 3/7/2 40/5/2
f 4/18/2 5/9/2 45/7/2
f 6/10/2 49/19/2 47/20/2
f 92/21/5 91/22/5 21/23/5
f 92/24/2 27/25/2 90/26/2
f 121/11/1 133/24/1 132/26/1
f 49/27/6 24/28/6 47/29/6
f 56/18/2 53/2/2 8/12/2
f 88/30/4 92/10/4 90/12/4
f 101/31/1 104/32/1 103/30/1
f 64/33/4 67/34/4 11/14/4
f 69/33/3 63/34/3 68/14/3
f 46/17/4 79/7/4 5/5/4
f 105/20/4 41/16/4 106/35/4
f 118/22/6 106/21/6 117/36/6
f 14/37/3 80/15/3 63/34/3
f 39/38/5 97/39/5 100/40/5
f 130/32/2 33/12/2 129/30/2
f 67/34/4 119/41/4 43/15/4
f 115/22/5 59/42/5 19/43/5
f 94/24/3 32/25/3 33/26/3
f 65/33/2 11/34/2 63/14/2
f 15/44/2 80/16/2 17/45/2
f 81/15/1 73/37/1 82/41/1
f 2/16/4 13/34/4 42/15/4
f 8/46/4 10/3/4 56/1/4
f 36/18/3 75/5/3 74/17/3
f 109/30/1 112/10/1 111/12/1
f 82/47/6 80/48/6 81/49/6
f 41/50/6 42/51/6 43/36/6
f 84/12/1 86/3/1 18/2/1
f 38/23/6 78/29/6 77/38/6
f 9/46/1 10/17/1 61/11/1
f 99/46/2 57/3/2 100/1/2
f 80/48/6 93/52/6 41/50/6
f 24/53/3 6/13/3 47/35/3
f 52/20/3 80/15/3 49/35/3
f 23/35/2 24/20/2 80/16/2
f 64/36/5 69/48/5 66/50/5
f 96/11/2 98/1/2 97/17/2
f 7/13/1 52/53/1 51/24/1
f 91/32/4 25/20/4 21/10/4
f 53/46/4 57/17/4 55/11/4
f 58/12/4 60/3/4 9/2/4
f 104/54/5 28/55/5 92/21/5
f 21/13/2 105/53/2 92/24/2
f 126/31/4 91/32/4 89/30/4
f 120/49/6 50/56/6 30/57/6
f 106/19/1 108/10/1 104/32/1
f 104/54/5 112/58/5 110/50/5
f 72/44/3 81/16/3 29/45/3
f 86/1/3 83/11/3 18/46/3
f 25/38/6 113/50/6 105/54/6
f 100/18/3 26/2/3 99/12/3
f 4/17/4 3/6/4 44/4/4
f 12/37/2 41/15/2 11/34/2
f 116/17/1 16/7/1 76/5/1
f 78/7/4 116/8/4 76/9/4
f 73/59/5 63/49/5 15/47/5
f 75/9/1 85/18/1 74/8/1
f 16/6/3 85/17/3 77/5/3
f 41/16/4 70/44/4 11/14/4
f 103/11/4 110/24/4 109/26/4
f 119/60/6 81/49/6 43/36/6
f 97/3/3 84/46/3 96/2/3
f 118/20/1 43/16/1 30/35/1
f 112/58/5 31/61/5 123/62/5
f 70/34/2 22/16/2 14/14/2
f 130/49/5 6/56/5 94/57/5
f 48/13/3 129/26/3 131/11/3
f 111/26/4 123/63/4 122/25/4
f 133/32/3 34/12/3 132/30/3
f 66/33/1 68/34/1 67/14/1
f 122/12/1 31/13/1 124/11/1
f 12/51/5 67/50/5 13/64/5
f 91/22/5 128/65/5 94/57/5
f 42/45/1 67/14/1 43/16/1
f 70/60/5 63/49/5 11/36/5
f 91/13/2 88/26/2 89/11/2
f 72/34/1 119/16/1 71/14/1
f 51/27/5 134/66/5 136/67/5
f 31/68/3 121/30/3 124/31/3
f 108/13/4 118/53/4 112/24/4
f 71/52/5 68/48/5 72/69/5
f 51/27/5 125/28/5 7/29/5
f 7/10/3 30/19/3 50/20/3
f 134/68/2 131/30/2 35/31/2
f 136/10/3 35/11/3 135/12/3
f 34/26/1 136/63/1 135/25/1
f 101/70/6 84/70/6 27/70/6
f 89/70/6 88/70/6 90/70/6
f 84/70/6 90/70/6 27/70/6
f 103/70/6 109/70/6 111/70/6
f 33/70/6 32/70/6 58/70/6
f 89/70/6 83/70/6 126/70/6
f 35/70/6 131/70/6 61/70/6
f 83/70/6 89/70/6 84/70/6
f 96/70/6 103/70/6 111/70/6
f 83/70/6 84/70/6 18/70/6
f 84/70/6 101/70/6 96/70/6
f 111/70/6 99/70/6 96/70/6
f 122/70/6 99/70/6 111/70/6
f 99/70/6 26/70/6 96/70/6
f 99/70/6 122/70/6 124/70/6
f 32/70/6 83/70/6 58/70/6
f 55/70/6 99/70/6 124/70/6
f 131/70/6 129/70/6 33/70/6
f 33/70/6 58/70/6 61/70/6
f 8/70/6 53/70/6 55/70/6
f 124/70/6 121/70/6 55/70/6
f 84/70/6 89/70/6 90/70/6
f 61/70/6 131/70/6 33/70/6
f 8/70/6 35/70/6 61/70/6
f 83/70/6 32/70/6 126/70/6
f 58/70/6 9/70/6 61/70/6
f 121/70/6 8/70/6 55/70/6
f 121/70/6 132/70/6 34/70/6
f 101/70/6 103/70/6 96/70/6
f 8/70/6 34/70/6 135/70/6
f 35/70/6 8/70/6 135/70/6
f 8/70/6 121/70/6 34/70/6
f 59/1/1 58/46/1 83/2/1
f 36/4/2 39/17/2 38/5/2
f 38/7/3 39/18/3 1/8/3
f 128/10/2 127/13/2 126/11/2
f 27/12/4 28/10/4 102/13/4
f 73/14/3 15/34/3 17/15/3
f 79/6/1 114/4/1 62/17/1
f 1/17/2 44/18/2 3/7/2
f 4/18/2 46/8/2 5/9/2
f 6/10/2 48/32/2 49/19/2
f 92/21/5 20/36/5 91/22/5
f 92/24/2 28/63/2 27/25/2
f 121/11/1 125/13/1 133/24/1
f 49/27/6 95/48/6 24/28/6
f 56/18/2 54/3/2 53/2/2
f 88/30/4 20/32/4 92/10/4
f 101/31/1 102/68/1 104/32/1
f 64/33/4 66/71/4 67/34/4
f 69/33/3 65/71/3 63/34/3
f 46/17/4 114/18/4 79/7/4
f 104/13/4 92/10/4 105/20/4
f 105/20/4 113/19/4 41/16/4
f 41/16/4 43/15/4 106/35/4
f 43/15/4 117/53/4 106/35/4
f 106/35/4 104/13/4 105/20/4
f 118/22/6 107/23/6 106/21/6
f 14/37/3 22/41/3 80/15/3
f 57/72/5 54/73/5 56/74/5
f 10/75/5 60/76/5 59/42/5
f 10/75/5 59/42/5 62/56/5
f 62/56/5 114/77/5 10/75/5
f 114/77/5 46/27/5 10/75/5
f 4/29/5 44/28/5 57/72/5
f 44/28/5 1/58/5 57/72/5
f 56/74/5 10/75/5 46/27/5
f 56/74/5 46/27/5 4/29/5
f 57/72/5 56/74/5 4/29/5
f 39/38/5 36/54/5 97/39/5
f 36/54/5 74/21/5 97/39/5
f 74/21/5 85/23/5 87/78/5
f 85/23/5 86/79/5 87/78/5
f 74/21/5 87/78/5 97/39/5
f 97/39/5 98/80/5 100/40/5
f 100/40/5 57/72/5 1/58/5
f 100/40/5 1/58/5 39/38/5
f 130/32/2 94/10/2 33/12/2
f 67/34/4 71/37/4 119/41/4
f 86/79/5 85/23/5 19/43/5
f 85/23/5 115/22/5 19/43/5
f 115/22/5 116/57/5 59/42/5
f 116/57/5 62/56/5 59/42/5
f 94/24/3 128/63/3 32/25/3
f 65/33/2 64/71/2 11/34/2
f 15/44/2 63/14/2 80/16/2
f 81/15/1 68/34/1 73/37/1
f 2/16/4 12/14/4 13/34/4
f 8/46/4 61/2/4 10/3/4
f 36/18/3 37/7/3 75/5/3
f 109/30/1 110/32/1 112/10/1
f 82/47/6 17/59/6 80/48/6
f 41/50/6 2/64/6 42/51/6
f 84/12/1 87/18/1 86/3/1
f 38/23/6 40/22/6 3/57/6
f 45/56/6 5/77/6 79/27/6
f 38/23/6 3/57/6 45/56/6
f 75/54/6 37/21/6 38/23/6
f 76/28/6 16/58/6 77/38/6
f 77/38/6 75/54/6 38/23/6
f 38/23/6 45/56/6 78/29/6
f 45/56/6 79/27/6 78/29/6
f 78/29/6 76/28/6 77/38/6
f 9/46/1 60/1/1 10/17/1
f 99/46/2 55/2/2 57/3/2
f 80/48/6 22/69/6 93/52/6
f 24/53/3 94/24/3 6/13/3
f 49/35/3 48/13/3 51/10/3
f 52/20/3 120/19/3 81/16/3
f 49/35/3 51/10/3 52/20/3
f 80/15/3 95/53/3 49/35/3
f 52/20/3 81/16/3 80/15/3
f 80/16/2 41/15/2 23/35/2
f 41/15/2 113/53/2 23/35/2
f 23/35/2 91/13/2 94/10/2
f 24/20/2 95/19/2 80/16/2
f 23/35/2 94/10/2 24/20/2
f 64/36/5 65/49/5 69/48/5
f 96/11/2 26/46/2 98/1/2
f 7/13/1 50/35/1 52/53/1
f 91/32/4 23/19/4 25/20/4
f 53/46/4 54/1/4 57/17/4
f 58/12/4 59/18/4 60/3/4
f 104/54/5 102/81/5 28/55/5
f 21/13/2 25/35/2 105/53/2
f 126/31/4 127/68/4 91/32/4
f 120/49/6 52/77/6 50/56/6
f 106/19/1 107/20/1 108/10/1
f 104/54/5 108/38/5 112/58/5
f 72/44/3 68/14/3 81/16/3
f 86/1/3 19/17/3 83/11/3
f 25/38/6 23/58/6 113/50/6
f 100/18/3 98/3/3 26/2/3
f 4/17/4 45/5/4 3/6/4
f 12/37/2 2/41/2 41/15/2
f 116/17/1 115/18/1 16/7/1
f 78/7/4 62/18/4 116/8/4
f 73/59/5 68/48/5 63/49/5
f 75/9/1 77/7/1 85/18/1
f 16/6/3 115/4/3 85/17/3
f 41/16/4 93/45/4 70/44/4
f 103/11/4 104/13/4 110/24/4
f 119/60/6 29/82/6 81/49/6
f 97/3/3 87/1/3 84/46/3
f 125/13/1 112/10/1 118/20/1
f 118/20/1 117/19/1 43/16/1
f 43/16/1 81/15/1 30/35/1
f 81/15/1 120/53/1 30/35/1
f 30/35/1 125/13/1 118/20/1
f 112/58/5 125/28/5 31/61/5
f 70/34/2 93/15/2 22/16/2
f 130/49/5 48/77/5 6/56/5
f 48/13/3 130/24/3 129/26/3
f 111/26/4 112/24/4 123/63/4
f 133/32/3 51/10/3 34/12/3
f 66/33/1 69/71/1 68/34/1
f 122/12/1 123/10/1 31/13/1
f 12/51/5 11/36/5 67/50/5
f 91/22/5 127/83/5 128/65/5
f 42/45/1 13/44/1 67/14/1
f 70/60/5 14/82/5 63/49/5
f 91/13/2 20/24/2 88/26/2
f 72/34/1 29/15/1 119/16/1
f 51/27/5 48/77/5 134/66/5
f 31/68/3 125/32/3 121/30/3
f 108/13/4 107/35/4 118/53/4
f 71/52/5 67/50/5 68/48/5
f 51/27/5 133/48/5 125/28/5
f 7/10/3 125/32/3 30/19/3
f 134/68/2 48/32/2 131/30/2
f 136/10/3 134/13/3 35/11/3
f 34/26/1 51/24/1 136/63/1
