# Blender 4.5.2 LTS
# www.blender.org
o stick
v 0.023352 0.040522 0.043269
v 0.023352 0.065522 0.018269
v 0.010852 0.078022 0.018269
v 0.010852 0.078022 0.030769
v -0.001648 0.040522 0.005769
v -0.014148 0.028022 -0.006730
v 0.010852 0.015522 0.005769
v 0.010852 0.003022 -0.006730
v -0.026648 0.078022 -0.019231
v -0.039148 0.065522 -0.019231
v -0.026648 0.065522 -0.006730
v -0.039148 0.065522 -0.006730
v -0.014148 0.078022 -0.006730
v -0.026648 0.028022 -0.031731
v 0.010852 -0.071978 -0.019231
v 0.010852 -0.021978 -0.019231
v 0.010852 -0.009478 -0.006730
v 0.010852 0.003022 -0.019231
v 0.010852 -0.071978 0.005769
v -0.001648 -0.071978 -0.019231
v -0.014148 -0.059478 -0.019231
v 0.010852 0.040522 0.005769
v 0.010852 0.053022 -0.006730
v 0.010852 0.053022 0.005769
v -0.001648 0.053022 -0.006730
v 0.010852 0.015522 0.018269
v -0.001648 0.053022 0.018269
v -0.001648 0.015522 0.018269
v 0.023352 -0.021978 -0.019231
v 0.023352 -0.021978 -0.006730
v 0.010852 -0.121978 -0.006730
v 0.010852 -0.184478 -0.006730
v -0.001648 -0.121978 0.005769
v -0.001648 -0.146978 -0.006730
v -0.014148 -0.146978 -0.006730
v -0.026648 -0.146978 -0.019231
v -0.026648 -0.146978 0.005769
v 0.023352 0.040522 0.005769
v 0.010852 0.065522 0.005769
v 0.035852 0.065522 0.018269
v 0.035852 0.053022 0.018269
v -0.014148 0.090522 -0.031731
v 0.023352 0.053022 0.030769
v 0.023352 0.053022 0.043269
v 0.010852 0.053022 0.030769
v 0.010852 0.053022 0.043269
v 0.010852 0.040522 0.043269
v 0.023352 0.078022 0.018269
v 0.023352 0.078022 0.030769
v 0.010852 0.065522 0.018269
v -0.001648 0.040522 -0.006730
v -0.001648 0.003022 -0.019231
v -0.001648 0.040522 -0.019231
v -0.014148 0.040522 -0.019231
v -0.001648 0.003022 -0.006730
v -0.014148 0.028022 -0.019231
v -0.014148 0.040522 -0.006730
v -0.014148 0.040522 0.005769
v -0.001648 0.015522 0.005769
v -0.039148 0.078022 -0.019231
v -0.026648 0.065522 -0.019231
v -0.039148 0.078022 -0.006730
v -0.014148 0.078022 -0.019231
v -0.014148 0.028022 -0.031731
v -0.026648 0.028022 -0.006730
v 0.010852 -0.021978 -0.006730
v 0.010852 -0.009478 -0.019231
v -0.001648 -0.071978 0.005769
v -0.014148 -0.059478 0.005769
v 0.010852 0.053022 0.018269
v 0.010852 0.040522 0.018269
v 0.023352 -0.009478 -0.019231
v 0.023352 -0.009478 -0.006730
v 0.010852 -0.121978 0.018269
v -0.001648 -0.121978 -0.006730
v 0.010852 -0.184478 0.018269
v -0.014148 -0.184478 -0.006730
v -0.014148 -0.121978 0.018269
v -0.014148 -0.121978 0.005769
v -0.014148 -0.184478 0.018269
v -0.014148 -0.146978 0.005769
v -0.001648 -0.146978 -0.019231
v -0.026648 -0.059478 -0.019231
v -0.026648 -0.059478 0.005769
v 0.023352 0.053022 0.005769
v 0.023352 0.053022 0.018269
v 0.035852 0.065522 0.005769
v 0.035852 0.053022 0.005769
v -0.014148 0.090522 -0.019231
v -0.026648 0.090522 -0.031731
v -0.026648 0.090522 -0.019231
vn 1.0000 -0.0000 -0.0000
vn -0.0000 -0.0000 1.0000
vn -0.0000 1.0000 -0.0000
vn -0.0000 -0.0000 -1.0000
vn -1.0000 -0.0000 -0.0000
vn -0.0000 -1.0000 -0.0000
s 1
f 41//1 87//1 40//1
f 7//1 8//1 22//1
s 0
f 39//2 22//2 24//2
s 1
f 18//3 55//3 8//3
f 38//1 44//1 1//1
f 24//3 23//3 25//3
f 85//4 22//4 39//4
f 76//1 31//1 74//1
f 55//1 53//1 51//1
f 57//3 5//3 51//3
f 3//4 2//4 50//4
f 47//2 44//2 46//2
f 6//5 21//5 69//5
f 61//6 12//6 10//6
f 65//5 11//5 61//5
f 20//6 19//6 68//6
f 32//6 80//6 77//6
f 14//6 64//6 56//6
f 83//5 37//5 84//5
f 45//5 3//5 71//5
f 28//6 7//6 26//6
f 84//3 21//3 83//3
f 88//6 86//6 85//6
f 45//3 44//3 43//3
f 63//3 62//3 13//3
f 17//3 72//3 67//3
f 91//3 42//3 90//3
f 35//6 81//6 37//6
f 2//3 40//3 87//3
f 28//2 26//2 71//2
f 34//4 75//4 31//4
f 30//1 72//1 73//1
f 4//3 48//3 3//3
f 45//2 49//2 4//2
f 54//1 56//1 64//1
f 51//4 25//4 23//4
f 54//1 13//1 57//1
f 9//2 89//2 91//2
f 84//2 79//2 68//2
f 9//4 10//4 60//4
f 25//5 51//5 5//5
f 11//2 6//2 13//2
f 81//5 77//5 80//5
f 75//1 82//1 20//1
f 31//3 75//3 33//3
f 14//4 42//4 64//4
f 80//2 74//2 78//2
f 66//2 73//2 17//2
f 60//5 12//5 62//5
f 29//6 66//6 16//6
f 86//2 40//2 2//2
f 71//6 22//6 38//6
f 39//5 70//5 50//5
f 49//1 86//1 48//1
f 15//4 52//4 18//4
f 29//4 67//4 72//4
f 53//4 21//4 54//4
f 21//4 36//4 83//4
f 41//1 88//1 87//1
f 71//1 26//1 7//1
f 7//1 19//1 66//1
f 19//1 15//1 66//1
f 15//1 16//1 66//1
f 17//1 67//1 18//1
f 17//1 18//1 8//1
f 7//1 66//1 17//1
f 22//1 71//1 7//1
f 23//1 24//1 22//1
f 7//1 17//1 8//1
f 8//1 23//1 22//1
f 18//3 52//3 55//3
f 38//1 85//1 44//1
f 25//3 27//3 24//3
f 27//3 70//3 24//3
f 39//4 87//4 85//4
f 87//4 88//4 85//4
f 85//4 38//4 22//4
f 76//1 32//1 31//1
f 55//1 52//1 53//1
f 51//3 53//3 54//3
f 57//3 58//3 5//3
f 51//3 54//3 57//3
f 3//4 48//4 2//4
f 47//2 1//2 44//2
f 69//5 58//5 6//5
f 58//5 57//5 6//5
f 6//5 56//5 21//5
f 61//6 11//6 12//6
f 91//5 90//5 61//5
f 90//5 14//5 61//5
f 14//5 65//5 61//5
f 20//6 15//6 19//6
f 32//6 76//6 80//6
f 6//6 65//6 56//6
f 65//6 14//6 56//6
f 83//5 36//5 37//5
f 45//5 4//5 3//5
f 71//5 47//5 45//5
f 47//5 46//5 45//5
f 28//6 59//6 7//6
f 84//3 69//3 21//3
f 88//6 41//6 86//6
f 45//3 46//3 44//3
f 63//3 60//3 62//3
f 17//3 73//3 72//3
f 91//3 89//3 42//3
f 37//6 36//6 35//6
f 36//6 82//6 35//6
f 82//6 34//6 35//6
f 87//3 39//3 2//3
f 39//3 50//3 2//3
f 70//2 27//2 71//2
f 27//2 28//2 71//2
f 31//4 32//4 34//4
f 32//4 77//4 34//4
f 77//4 35//4 34//4
f 30//1 29//1 72//1
f 4//3 49//3 48//3
f 45//2 43//2 49//2
f 64//1 42//1 54//1
f 42//1 89//1 54//1
f 23//4 8//4 51//4
f 8//4 55//4 51//4
f 54//1 63//1 13//1
f 9//2 63//2 89//2
f 19//2 7//2 69//2
f 7//2 59//2 69//2
f 59//2 5//2 58//2
f 69//2 84//2 68//2
f 84//2 37//2 79//2
f 59//2 58//2 69//2
f 68//2 19//2 69//2
f 79//2 33//2 68//2
f 37//2 81//2 79//2
f 9//4 61//4 10//4
f 59//5 28//5 5//5
f 28//5 27//5 5//5
f 27//5 25//5 5//5
f 13//2 62//2 11//2
f 62//2 12//2 11//2
f 11//2 65//2 6//2
f 80//5 78//5 81//5
f 78//5 79//5 81//5
f 81//5 35//5 77//5
f 20//1 68//1 75//1
f 68//1 33//1 75//1
f 75//1 34//1 82//1
f 79//3 78//3 33//3
f 78//3 74//3 33//3
f 74//3 31//3 33//3
f 14//4 90//4 42//4
f 80//2 76//2 74//2
f 66//2 30//2 73//2
f 60//5 10//5 12//5
f 29//6 30//6 66//6
f 86//2 41//2 40//2
f 38//6 1//6 71//6
f 1//6 47//6 71//6
f 39//5 24//5 70//5
f 49//1 43//1 86//1
f 15//4 20//4 52//4
f 29//4 16//4 67//4
f 53//4 82//4 21//4
f 21//4 82//4 36//4
