# Blender 4.5.2 LTS
# www.blender.org
o view_arm_right
v 0.024999 -0.025000 -0.020312
v 0.024999 -0.025000 -0.070312
v -0.024999 -0.025000 -0.020312
v -0.024999 0.024999 -0.070313
v -0.024999 -0.025000 -0.070312
v -0.024999 0.024999 -0.020313
v 0.024999 0.024999 -0.070313
v -0.024999 -0.024999 0.304688
v -0.024999 0.025000 0.304688
v 0.031250 -0.031250 -0.070312
v 0.031250 0.031250 -0.132812
v 0.031250 -0.031250 -0.132812
v -0.031250 0.031250 -0.070313
v -0.031250 -0.031250 -0.070312
v -0.031250 -0.031250 -0.132812
v 0.031250 0.031250 -0.070313
v -0.031250 0.031250 -0.132812
v 0.024999 0.024999 -0.020313
v 0.024999 0.025000 0.304688
v 0.024999 -0.024999 0.304688
vn -0.0000 -1.0000 -0.0000
vn -0.0000 1.0000 -0.0000
vn 1.0000 -0.0000 -0.0000
vn -0.0000 -0.0000 1.0000
vn -1.0000 -0.0000 -0.0000
vn -0.0000 -0.0000 -1.0000
vt 0.833333 0.500000
vt 0.348804 0.500000
vt 0.166667 0.500000
s 1
f 5/1/1 1/1/1 3/1/1
f 11/1/2 13/1/2 16/1/2
f 15/1/1 10/1/1 14/1/1
f 12/1/3 16/1/3 10/1/3
f 2/1/4 14/1/4 10/1/4
f 2/1/3 18/1/3 1/1/3
f 13/1/4 5/1/4 4/1/4
f 3/2/1 20/3/1 8/3/1
f 6/2/5 8/3/5 9/3/5
f 17/1/5 14/1/5 13/1/5
f 7/1/2 6/1/2 18/1/2
f 4/1/5 3/1/5 6/1/5
f 12/1/6 17/1/6 11/1/6
f 1/2/3 19/3/3 20/3/3
f 18/2/2 9/3/2 19/3/2
f 5/1/1 2/1/1 1/1/1
f 11/1/2 17/1/2 13/1/2
f 15/1/1 12/1/1 10/1/1
f 12/1/3 11/1/3 16/1/3
f 10/1/4 16/1/4 7/1/4
f 2/1/4 5/1/4 14/1/4
f 10/1/4 7/1/4 2/1/4
f 2/1/3 7/1/3 18/1/3
f 7/1/4 16/1/4 13/1/4
f 13/1/4 14/1/4 5/1/4
f 4/1/4 7/1/4 13/1/4
f 3/2/1 1/2/1 20/3/1
f 6/2/5 3/2/5 8/3/5
f 17/1/5 15/1/5 14/1/5
f 7/1/2 4/1/2 6/1/2
f 4/1/5 5/1/5 3/1/5
f 12/1/6 15/1/6 17/1/6
f 1/2/3 18/2/3 19/3/3
f 18/2/2 6/2/2 9/3/2
